<mxfile host="app.diagrams.net" modified="2023-12-06T10:46:43.404Z" agent="Mozilla/5.0 (Macintosh; Intel Mac OS X 10_15_7) AppleWebKit/605.1.15 (KHTML, like Gecko) Version/17.1.2 Safari/605.1.15" version="22.1.5" etag="ejNNZBDjT3G-FlJetkqG" type="github">
  <diagram name="第 1 页" id="oxdGBn49w3uLmTMwDb_G">
    <mxGraphModel>
      <root>
        <mxCell id="0" />
        <mxCell id="1" parent="0" />
      </root>
    </mxGraphModel>
  </diagram>
</mxfile>
